<?xml version="1.0" encoding="utf-8"?>
<!-- Generator: Adobe Illustrator 15.1.0, SVG Export Plug-In . SVG Version: 6.00 Build 0)  -->
<!DOCTYPE svg PUBLIC "-//W3C//DTD SVG 1.1 Tiny//EN" "http://www.w3.org/Graphics/SVG/1.1/DTD/svg11-tiny.dtd">
<svg version="1.1" baseProfile="tiny" id="Layer_1" xmlns="http://www.w3.org/2000/svg" xmlns:xlink="http://www.w3.org/1999/xlink"
	 x="0px" y="0px" width="536.309px" height="151.734px" viewBox="0 0 536.309 151.734" overflow="inherit" xml:space="preserve">
<g>
	<rect x="8.194" y="-5.051" fill="none" width="497.186" height="129.431"/>
	<g>
		<path fill="#93D8EE" d="M488.975,105.595c-0.486-0.213-0.964-0.468-1.437-0.688c0.92-0.423,2.285-0.437,3.842-0.229
			c-15.083-5.466-34.947-2.177-47.751,3.291c-4.62-0.192-8.726,1.43-9.164,3.654c-0.429,2.224,2.972,4.183,7.631,4.392
			c1.023,0.264,2.221,0.441,2.961,0.813c6.65,3.435,14.769,5.787,23.725,7.551c-1.722-0.651-3.522-1.303-5.249-1.953
			c2.589,0.538,5.141,1.101,8.024,1.135c-0.302-0.407-0.689-0.815-0.994-1.228c8.906,2.951,21.117,1.894,27.272-2.335
			c6.179-4.241,4.002-10.054-4.906-12.999L488.975,105.595z"/>
		<path fill="#93D8EE" d="M472.353,92.704c5.333,1.457,10.454,3.021,15.58,4.618l1.016,0.757l-0.343-3.414l-0.101,0.22
			c-4.802,2.859-12.72,4.024-20.011,4.839l-2.601,0.493c-1.245,0.443-2.075,1.11-2.333,1.833c-0.61,1.639,1.663,3.179,5.059,3.453
			l3.917,0.301c9.539,1.965,24.55,2.045,29.869-3.734c1.198-1.337,0.15-3.032-0.108-4.592c0.363-2.257-3.227-4.232-7.99-4.392
			c-4.774-0.155-8.873,1.544-9.201,3.818c-0.806-0.162-1.64-0.314-2.44-0.473c0.629-0.284,1.273-0.534,1.912-0.813
			c-1.347,1.974-5.692,2.416-8.927,3.465l-4.848,0.549l2.736,5.287l2.524-0.697c-0.191-0.225-0.562-0.56-0.531-0.579
			c4.803-1.445,9.319-2.887,14.578-3.816l6.617-1.929c1.794-1.003,1.62-2.499-0.343-3.417l-2.934-1.143
			c0.444,0.239,0.886,0.438,1.326,0.678c-6.767-1.201-13.902-1.904-20.597-3.17c-1.057-0.251-2.345-0.032-2.904,0.492
			C470.803,91.857,471.26,92.473,472.353,92.704L472.353,92.704z"/>
		<g>
			<path fill="#93D8EE" d="M496.239,92c1.098,0.403,2.15,0.835,3.715,0.737c0.376-0.238,0.567-0.355,0.668-0.423
				c-0.581-0.244-1.359-0.579-2.142-0.904C496.939,90.758,496.146,91.258,496.239,92z"/>
			<path fill="#93D8EE" d="M500.622,92.314c0.535,0.23,0.893,0.383,0.893,0.383c-0.204-0.178-0.404-0.338-0.597-0.499
				c-0.171,0.035-0.176,0.042-0.176,0.042S500.735,92.243,500.622,92.314z"/>
			<path fill="#93D8EE" d="M205.021,102.034c-20.939-1.124-41.963-1.878-62.979-2.429c-0.704-0.02-1.297,0.221-1.331,0.556
				c-0.036,0.284,0.512,0.585,1.164,0.579c21.026,0.599,41.947,1.364,62.881,2.484c0.704,0.016,1.285-0.224,1.381-0.535
				C206.172,102.354,205.678,102.075,205.021,102.034z"/>
			<path fill="#93D8EE" d="M48.162,69.448c0.499-0.25,0.481-0.59-0.038-0.823c-0.442-0.205-1.234-0.23-1.729,0.016
				c-0.418,0.213-0.402,0.625,0.042,0.823C46.951,69.704,47.743,69.658,48.162,69.448z"/>
			<path fill="#93D8EE" d="M52.665,43.775c2.938-0.48,5.726-1.023,8.213-1.909c0.465-0.131,0.984-0.098,1.376,0.031
				c-0.171-0.531,0.39-1.008,1.449-1.231c20.866-4.392,43.311-6.14,65.412-8.483c0.147-0.422,0.441-0.845,0.934-1.229
				c1.529-1.323,4.6-2.011,7.785-1.771l2.404,0.324c9.707,0.77,19.392,1.368,29.044,2.198c1.975-0.604,4.267-1.007,6.758-1.128
				c8.348-1.639,16.724-3.197,25.282-4.392c-0.538-0.363-0.864-0.8-0.859-1.279c0.166-1.138,2.148-1.984,4.462-1.941
				c1.168-0.032,2.331-0.052,3.498-0.071c-3.347-0.273-6.702-0.56-10.039-0.886c-0.483-0.02-0.929-0.092-1.334-0.194
				c-3.671-0.044-7.38-0.025-11.153,0.082c-32.923,1.007-63.88,5.322-94.598,10.292c-0.505,0.18-1.292,0.154-1.739-0.121
				c-0.299-0.269-0.246-0.646,0.317-0.793c19.362-5.709,36.112-13.215,58.004-16.948c26.052-4.479,51.778-8.224,78.483-11.119
				c27.923,0.01,53.757-2.738,82.236-4.762c38.468-2.778,74.807-3.231,112.442-3.495c14.103-0.906,27.02,3.841,28.848,10.527
				c1.063,4.065-2.125,7.912-7.927,10.521c1.156,0.021,2.295,0.048,3.441,0.087l5.452,0.804c5.157,0.804,9.559,2.474,12.334,4.748
				l3.818,2.817c5.077,5.344,13.3,9.832,17.454,15.428l-0.931,2.104l0.982,0.613c3.243,1.548,5.429,3.56,6.18,5.715l-0.313,2.549
				c-0.678,2.919-2.3,5.663-4.905,8.243c0.092,1.083-0.221,2.14-0.898,3.14c2.222,2.619,3.273,5.356,1.516,8.379
				c1.338,0.755,1.115,1.868-0.478,2.509c-0.551,0.213-1.212,0.345-1.887,0.392c0.012,0.01,0.018,0.01,0.018,0.01
				c0.733,0.666,0.952,0.86,1.941,1.603c1.328,0.224,2.097,0.39,2.097,0.39c3.534,0.453,3.534,0.453,6.596,0.887
				c2.637,0.9,4.265,2.146,4.265,2.146c2.915,4.563,2.915,4.563,2.465,6.527c-0.171,0.193-0.363,0.381-0.568,0.56
				c2.338,0.657,2.5,0.708,3.129,0.911c0.659,0.351,1.11,0.758,1.11,0.758c0.1,1.058,0.1,1.058,0.502,1.44
				c0.128,0.412,0.098,0.8,0.098,0.8c-1.304,1.175-1.304,1.175-1.339,1.51c-0.31,0.317-0.734,0.575-0.734,0.575
				c-1.525,0.356-2.134,0.493-2.39,0.555c-3.274-2.731-3.284-2.742-3.284-2.742C496.92,90.4,496.92,90.4,496.92,90.4
				c-0.764-1.26-0.764-1.26-0.764-1.26c0.433,1.155,0.433,1.155,0.433,1.155c-1.656-0.703-1.656-0.703-1.656-0.703
				c1.892,1.013,1.892,1.013,1.892,1.013c-3.916-0.423-3.916-0.423-5.485-0.381c-1.631-0.138-3.026,0.136-3.192,0.162
				c0.138,0.358,0.144,0.616,0.144,0.616c-4.187-0.448-4.187-0.448-8.27-0.942c-0.379-0.254-0.679-0.509-0.958-0.757
				c-0.392,0.313-1.173,0.498-1.98,0.407c-0.717-0.062-1.429-0.138-2.142-0.204c-0.16,0.057-0.314,0.11-0.458,0.163
				c0,0.051,0.004,0.086,0.004,0.086c-0.729,0.219-1.231,0.367-1.807,0.54c-0.363,0.126-0.375,0.132-0.375,0.132
				c-0.003-0.006-0.016-0.009-0.022-0.016c-1.245,0.372-3.049,0.911-7.825,2.341c-1.267-0.14-2.446-0.326-3.562-0.545
				c0.36,0.169,0.704,0.337,1.038,0.52c0.668,0.371,0.059,1.378,0.421,1.476c8.947,2.158,18.693,3.037,28.301,4.188
				c1.724-0.122,3.341,0.478,3.594,1.303c0.224,0.84-1.005,1.593-2.771,1.699c-19.476,5.449-43.389,4.707-63.394,0.362
				c-5.267-0.536-10.562-0.987-15.875-1.42c0.257,0.167,0.51,0.335,0.762,0.513c-1.377-0.27-2.751-0.519-4.122-0.782
				c-0.148-0.016-0.3-0.028-0.446-0.036c1.043,0.617,2.084,1.236,3.12,1.851c0.718,0.189,1.434,0.373,2.163,0.54
				c12.319,0.77,23.492,3.644,35.392,5.479c6.396,0.994,11.887,2.76,17.934,4.072c1.558,0.102,2.637,0.763,2.452,1.521
				c-0.181,0.724-1.634,1.236-3.153,1.15c-20.176,1.287-43.204,0.102-59.356-6.219c-3.685-0.043-7.233-0.549-10.177-1.693
				c-0.053-0.006-0.109-0.017-0.165-0.021c0.774,0.513,1.495,1.032,2.269,1.546c-2.753-0.386-4.222-1.657-6.733-2.197
				c0.287,0.703,0.64,1.398,0.929,2.106c-13.588-1.318-28.283-0.719-40.862-3.766c-0.507-0.04-0.978-0.117-1.451-0.188
				c-5.414,1.473-10.894,2.896-17.32,3.089c2.175,0.234,4.299,0.442,6.475,0.677c-4.663,0.905-9.289,1.516-14.282,1.42
				c-13.515-0.199-28.643-3.45-35.786-8.96c-26.194,0.66-52.425,1.19-78.562,2.532c-1.35,0.093-2.561-0.356-2.801-0.976
				c-0.138-0.617,0.752-1.219,2.102-1.309c18.746-2.172,37.762-3.321,56.819-4.305c-15.925-1.088-31.931-2.11-48.251-2.334
				c-2.079,0.088-4.171,0.18-6.269,0.269c-2.072,0.097-4.126-0.076-6.176-0.331c-20.851-0.035-40.638-0.381-61.906,1.182
				c-18.167,1.354-34.062,2.789-52.15,4.732c-25.404,2.744-48.547,5.515-73.653,5.525c-3.339,0.193-6.431-0.963-6.824-2.562
				c-0.402-1.591,2.02-3.06,5.369-3.255c52.356-4.94,103.751-10.923,158.486-10.139c5.904,0.085,11.712,0.172,17.49,0.286
				c-0.075-0.215-0.145-0.429-0.145-0.647c0-0.871,0.549-1.675,1.472-2.35c-6.56-0.215-13.173-0.561-19.807-1.024
				c-18.449,1.827-36.923,3.653-56.594,2.717c-13.51-0.677-25.734-2.56-38.228-4.296c-15.83,0.991-31.614,2.258-47.604,3.105
				c-0.636,0.112-1.301-0.056-1.531-0.361c-0.23-0.311,0.116-0.621,0.76-0.731c10.996-1.98,22.261-3.472,33.631-4.81
				c-1.792-0.998-2.859-2.289-2.717-3.703c0.142-1.471,1.532-2.779,3.657-3.705c-2.579-0.039-5.154-0.055-7.733-0.107
				c-1.593-0.05-2.847-0.621-2.801-1.343c0.035-0.793,1.303-1.358,2.817-1.337c10.518,0.086,21.014,0.208,31.509,0.32
				c12.603-0.804,25.157-1.496,37.783-2.082c-1.75-0.969-3.04-2.157-3.653-3.5c-0.001-0.009-0.001-0.02-0.001-0.025
				c-1.957,0.031-3.904,0.071-5.847,0.107C82.83,70.075,46.327,72.345,9.523,71.541c-0.721,0.011-1.316-0.259-1.329-0.604
				c-0.013-0.342,0.545-0.622,1.192-0.594c11.11,0.246,22.191,0.211,33.232-0.063c-0.017-0.005-0.026-0.011-0.044-0.015
				c-0.447-0.205-0.528-0.581-0.042-0.825c0.426-0.215,1.296-0.219,1.732-0.019c0.514,0.232,0.465,0.604,0.049,0.819
				c20.575-0.556,41.007-1.965,61.167-4.015c-18.734,0.34-37.469,0.548-56.179-0.107c-2.041,0.422-4.073,0.849-6.146,1.251
				c-0.563,0.076-1.302-0.121-1.53-0.433c-0.156-0.275,0.257-0.619,0.836-0.697c0.577-0.096,1.146-0.208,1.718-0.315
				c-3.543-0.132-6.276-1.541-6.218-3.283c0.195-1.789,3.24-3.164,6.919-3.097c9.853-0.342,19.672-0.52,29.49-0.607
				c1.061-0.095,2.124-0.213,3.186-0.31c1.072-0.275,2.134-0.554,3.201-0.84c-15.27-0.692-30.508-1.536-45.657-2.442
				c-1.3,0.016-2.41-0.488-2.437-1.11c-0.033-0.615,1.021-1.145,2.326-1.159c26.694-2.492,53.718-4.187,80.86-5.313
				c8.908-2.68,17.843-5.398,26.944-8.058c-1.145-0.047-2.305-0.078-3.464-0.082c-29.506,0.004-54.543,7.632-83.111,9.205
				c-0.715,0.079-1.309-0.188-1.404-0.5c-0.077-0.31,0.41-0.625,1.136-0.63c13.942-1.043,26.666-3.659,40.497-5.486
				c11.459-1.531,22.356-2.932,33.005-4.954c-21.772,0.727-42.65,4.038-64.216,5.525c-0.942,0.141-1.893-0.006-2.491-0.337
				c-0.051,0.173-0.243,0.337-0.531,0.438c-2.695,0.854-5.634,1.47-8.639,1.984c-0.574,0.14-1.3,0.009-1.604-0.332
				C51.676,44.268,52.024,43.959,52.665,43.775z M431.473,80.485c0.212,0.143,0.381,0.259,0.541,0.372
				c-0.584-0.199-1.209-0.407-1.904-0.637c0,0,0,0-2.657-2.527C427.453,77.693,429.467,79.066,431.473,80.485z M464.82,71.195
				c-0.006,0-0.006,0-0.02,0c0.888,0.824,1.53,1.419,1.53,1.419C465.709,72.034,465.224,71.571,464.82,71.195z M251.894,93.21
				c11.45,0.052,22.784,0.643,34.094,2.229c-2.765,0.137-5.517,0.275-8.279,0.417C269.131,95.104,260.533,94.219,251.894,93.21z
				 M453.835,90.046c-3.014-1.317-5.361-2.94-7.578-4.615c-1.982,0.301-4.053,0.413-6.15,0.342
				c-5.637-0.183-11.127-0.519-16.531-0.987c0.7,0.89-0.595,0.783-1.256,0.89c-0.684,0.076-1.358,0.139-2.032,0.214
				c5.765,0.637,11.549,1.333,17.432,2.091C443.024,88.652,448.789,89.043,453.835,90.046z M494.105,86.636
				c0.162,0.112,0.311,0.214,0.495,0.325c0,0,0,0-1.079,1.329C493.521,88.291,493.777,87.594,494.105,86.636z M495.804,84.384
				c-0.266-0.062-0.532-0.128-0.824-0.188C495.277,83.701,495.543,83.879,495.804,84.384z M488.227,82.698
				c0.447,0.356,0.722,0.575,1.073,0.719C488.234,82.698,488.227,82.698,488.227,82.698z M482.85,43.52l-2.954,6.66l3.22-6.396
				L482.85,43.52z"/>
		</g>
	</g>
</g>
<g>
	<rect x="76.509" y="12.721" fill="none" width="373.146" height="97.14"/>
	<g>
		<path fill="#00ACDC" d="M437.343,95.762c-0.365-0.159-0.724-0.351-1.078-0.516c0.689-0.317,1.715-0.328,2.883-0.172
			c-11.32-4.102-26.229-1.634-35.838,2.471c-3.467-0.145-6.549,1.073-6.878,2.742c-0.322,1.669,2.23,3.139,5.727,3.296
			c0.769,0.198,1.668,0.332,2.224,0.61c4.99,2.578,11.084,4.344,17.806,5.667c-1.293-0.488-2.645-0.978-3.94-1.466
			c1.943,0.404,3.858,0.826,6.022,0.852c-0.226-0.306-0.518-0.611-0.746-0.921c6.685,2.215,15.85,1.421,20.469-1.753
			c4.638-3.183,3.004-7.545-3.683-9.756L437.343,95.762z"/>
		<path fill="#00ACDC" d="M424.868,86.088c4.003,1.094,7.846,2.267,11.693,3.466l0.762,0.568l-0.257-2.562l-0.075,0.165
			c-3.604,2.146-9.547,3.021-15.019,3.631l-1.952,0.371c-0.935,0.332-1.558,0.833-1.751,1.375c-0.458,1.229,1.248,2.386,3.797,2.592
			l2.939,0.226c7.159,1.475,18.425,1.535,22.418-2.803c0.898-1.004,0.112-2.275-0.082-3.446c0.272-1.693-2.422-3.176-5.997-3.296
			c-3.583-0.116-6.659,1.159-6.905,2.866c-0.604-0.122-1.23-0.236-1.832-0.355c0.473-0.213,0.956-0.4,1.436-0.61
			c-1.011,1.481-4.272,1.813-6.7,2.601l-3.638,0.412l2.054,3.968l1.895-0.523c-0.144-0.168-0.422-0.42-0.398-0.435
			c3.604-1.085,6.994-2.166,10.941-2.864l4.966-1.447c1.346-0.753,1.216-1.875-0.257-2.564l-2.202-0.857
			c0.333,0.18,0.665,0.328,0.995,0.508c-5.078-0.901-10.434-1.429-15.458-2.379c-0.793-0.188-1.76-0.023-2.18,0.37
			C423.705,85.452,424.047,85.914,424.868,86.088L424.868,86.088z"/>
		<g>
			<path fill="#00ACDC" d="M442.794,85.559c0.823,0.302,1.614,0.626,2.788,0.553c0.282-0.179,0.426-0.267,0.501-0.316
				c-0.436-0.184-1.021-0.436-1.607-0.68C443.32,84.627,442.725,85.002,442.794,85.559z"/>
			<path fill="#00ACDC" d="M446.083,85.796c0.402,0.172,0.67,0.287,0.67,0.287c-0.153-0.134-0.304-0.255-0.448-0.375
				c-0.128,0.026-0.131,0.031-0.131,0.031S446.168,85.742,446.083,85.796z"/>
			<path fill="#00ACDC" d="M224.23,93.09c-15.715-0.844-31.494-1.409-47.267-1.822c-0.528-0.015-0.973,0.165-0.999,0.417
				c-0.027,0.213,0.384,0.438,0.873,0.435c15.781,0.449,31.482,1.023,47.193,1.864c0.528,0.012,0.964-0.168,1.037-0.401
				C225.094,93.33,224.723,93.12,224.23,93.09z"/>
			<path fill="#00ACDC" d="M106.505,68.634c0.374-0.188,0.361-0.443-0.029-0.618c-0.332-0.154-0.926-0.173-1.298,0.012
				c-0.313,0.16-0.302,0.469,0.031,0.618C105.596,68.825,106.19,68.791,106.505,68.634z"/>
			<path fill="#00ACDC" d="M109.885,49.365c2.205-0.36,4.297-0.768,6.164-1.433c0.349-0.099,0.739-0.073,1.033,0.023
				c-0.128-0.398,0.292-0.757,1.087-0.924c15.661-3.296,32.505-4.608,49.093-6.367c0.11-0.316,0.331-0.634,0.701-0.923
				c1.147-0.993,3.452-1.509,5.843-1.329l1.804,0.243c7.285,0.578,14.554,1.026,21.798,1.65c1.482-0.454,3.203-0.756,5.072-0.847
				c6.265-1.23,12.552-2.399,18.975-3.296c-0.404-0.272-0.648-0.601-0.645-0.96c0.125-0.854,1.612-1.489,3.349-1.457
				c0.876-0.024,1.75-0.039,2.625-0.054c-2.512-0.205-5.03-0.42-7.535-0.665c-0.362-0.015-0.697-0.069-1.001-0.146
				c-2.755-0.033-5.539-0.019-8.37,0.062c-24.71,0.756-47.943,3.994-70.998,7.725c-0.379,0.135-0.97,0.115-1.305-0.091
				c-0.225-0.202-0.185-0.485,0.238-0.596c14.532-4.285,27.103-9.918,43.533-12.72c19.553-3.361,38.861-6.172,58.903-8.345
				c20.957,0.008,40.346-2.055,61.72-3.574c28.871-2.085,56.144-2.425,84.391-2.623c10.583-0.68,20.278,2.883,21.65,7.9
				c0.798,3.051-1.595,5.938-5.949,7.896c0.867,0.016,1.722,0.036,2.583,0.065l4.092,0.604c3.87,0.604,7.174,1.856,9.256,3.563
				l2.866,2.114c3.811,4.011,9.982,7.379,13.1,11.579l-0.698,1.579l0.737,0.46c2.435,1.162,4.074,2.672,4.639,4.289l-0.235,1.913
				c-0.51,2.191-1.727,4.25-3.682,6.187c0.068,0.812-0.166,1.606-0.675,2.356c1.668,1.965,2.457,4.02,1.138,6.289
				c1.004,0.566,0.837,1.401-0.358,1.883c-0.413,0.16-0.909,0.259-1.416,0.294c0.009,0.008,0.013,0.008,0.013,0.008
				c0.551,0.5,0.715,0.646,1.457,1.203c0.997,0.168,1.574,0.293,1.574,0.293c2.652,0.34,2.652,0.34,4.95,0.665
				c1.979,0.676,3.2,1.611,3.2,1.611c2.188,3.425,2.188,3.425,1.85,4.899c-0.128,0.146-0.272,0.286-0.426,0.42
				c1.754,0.493,1.876,0.531,2.348,0.684c0.495,0.264,0.834,0.569,0.834,0.569c0.075,0.794,0.075,0.794,0.376,1.081
				c0.097,0.309,0.073,0.6,0.073,0.6c-0.978,0.882-0.978,0.882-1.004,1.134c-0.233,0.237-0.552,0.432-0.552,0.432
				c-1.145,0.268-1.602,0.37-1.794,0.416c-2.457-2.051-2.465-2.058-2.465-2.058c-0.534,0.708-0.534,0.708-0.534,0.708
				c-0.573-0.945-0.573-0.945-0.573-0.945c0.324,0.867,0.324,0.867,0.324,0.867c-1.243-0.527-1.243-0.527-1.243-0.527
				c1.42,0.76,1.42,0.76,1.42,0.76c-2.938-0.317-2.938-0.317-4.116-0.286c-1.225-0.104-2.271,0.103-2.396,0.122
				c0.104,0.269,0.108,0.462,0.108,0.462c-3.143-0.336-3.143-0.336-6.207-0.707c-0.284-0.19-0.509-0.382-0.719-0.568
				c-0.294,0.235-0.881,0.374-1.486,0.306c-0.538-0.046-1.072-0.104-1.607-0.152c-0.12,0.042-0.236,0.082-0.344,0.122
				c0,0.038,0.003,0.064,0.003,0.064c-0.547,0.164-0.925,0.275-1.356,0.405c-0.272,0.095-0.281,0.099-0.281,0.099
				c-0.002-0.004-0.012-0.007-0.017-0.012c-0.935,0.279-2.288,0.684-5.873,1.757c-0.951-0.104-1.836-0.244-2.673-0.408
				c0.271,0.126,0.528,0.252,0.779,0.39c0.501,0.278,0.044,1.034,0.315,1.107c6.715,1.619,14.03,2.279,21.24,3.143
				c1.294-0.092,2.508,0.358,2.697,0.978c0.168,0.63-0.754,1.195-2.08,1.275c-14.616,4.09-32.563,3.532-47.577,0.271
				c-3.953-0.401-7.928-0.741-11.915-1.065c0.192,0.126,0.383,0.252,0.571,0.385c-1.033-0.202-2.064-0.389-3.094-0.587
				c-0.111-0.012-0.225-0.021-0.335-0.027c0.783,0.463,1.564,0.928,2.342,1.39c0.539,0.142,1.076,0.279,1.624,0.405
				c9.245,0.577,17.631,2.734,26.562,4.111c4.8,0.746,8.922,2.071,13.46,3.057c1.169,0.076,1.979,0.572,1.84,1.142
				c-0.136,0.543-1.226,0.928-2.366,0.863c-15.143,0.966-32.426,0.076-44.548-4.667c-2.766-0.032-5.429-0.412-7.638-1.271
				c-0.04-0.004-0.083-0.012-0.124-0.016c0.581,0.386,1.122,0.775,1.702,1.161c-2.066-0.29-3.168-1.244-5.054-1.649
				c0.216,0.527,0.48,1.05,0.697,1.581c-10.198-0.989-21.227-0.539-30.668-2.826c-0.38-0.03-0.733-0.088-1.089-0.142
				c-4.063,1.105-8.176,2.174-12.999,2.318c1.632,0.176,3.226,0.332,4.859,0.508c-3.5,0.68-6.972,1.138-10.72,1.065
				c-10.143-0.149-21.496-2.589-26.857-6.725c-19.659,0.496-39.347,0.894-58.962,1.901c-1.013,0.069-1.922-0.268-2.103-0.732
				c-0.104-0.463,0.564-0.915,1.578-0.982c14.069-1.63,28.341-2.493,42.644-3.23c-11.952-0.816-23.965-1.584-36.213-1.752
				c-1.56,0.066-3.13,0.135-4.705,0.201c-1.555,0.073-3.097-0.057-4.635-0.248c-15.649-0.026-30.5-0.286-46.462,0.887
				c-13.635,1.016-25.563,2.093-39.14,3.552c-19.066,2.06-36.436,4.139-55.278,4.146c-2.506,0.146-4.827-0.722-5.121-1.923
				c-0.302-1.193,1.516-2.297,4.029-2.442c39.294-3.708,77.867-8.198,118.947-7.61c4.432,0.064,8.791,0.13,13.127,0.216
				c-0.057-0.162-0.109-0.322-0.109-0.486c0-0.653,0.413-1.257,1.105-1.763c-4.923-0.162-9.886-0.422-14.865-0.77
				c-13.846,1.371-27.711,2.742-42.475,2.039c-10.139-0.508-19.314-1.921-28.69-3.225c-11.88,0.744-23.727,1.695-35.728,2.331
				c-0.478,0.084-0.977-0.042-1.149-0.271c-0.172-0.232,0.087-0.466,0.57-0.549c8.253-1.486,16.707-2.605,25.241-3.609
				c-1.345-0.749-2.146-1.718-2.039-2.78c0.106-1.104,1.15-2.085,2.744-2.78c-1.936-0.029-3.869-0.041-5.804-0.08
				c-1.195-0.038-2.137-0.466-2.103-1.008c0.026-0.596,0.978-1.02,2.114-1.004c7.894,0.064,15.771,0.156,23.648,0.24
				c9.458-0.604,18.881-1.123,28.356-1.562c-1.313-0.727-2.281-1.619-2.741-2.627c-0.001-0.007-0.001-0.015-0.001-0.019
				c-1.469,0.023-2.93,0.053-4.388,0.08c-26.764,3.074-54.161,4.778-81.782,4.174c-0.542,0.008-0.988-0.194-0.998-0.454
				c-0.01-0.257,0.409-0.467,0.895-0.445c8.338,0.185,16.655,0.158,24.942-0.048c-0.013-0.004-0.02-0.008-0.033-0.011
				c-0.335-0.153-0.396-0.436-0.031-0.619c0.319-0.161,0.972-0.164,1.299-0.014c0.386,0.174,0.349,0.454,0.037,0.614
				c15.442-0.417,30.777-1.475,45.907-3.013c-14.06,0.255-28.121,0.412-42.163-0.08c-1.532,0.316-3.057,0.637-4.613,0.939
				c-0.423,0.057-0.977-0.091-1.148-0.325c-0.117-0.207,0.193-0.465,0.627-0.523c0.433-0.072,0.86-0.156,1.29-0.236
				c-2.659-0.099-4.71-1.157-4.667-2.464c0.146-1.343,2.432-2.375,5.193-2.324c7.395-0.257,14.764-0.39,22.132-0.455
				c0.797-0.072,1.594-0.16,2.392-0.232c0.804-0.207,1.602-0.416,2.402-0.63c-11.46-0.52-22.897-1.153-34.267-1.833
				c-0.976,0.012-1.809-0.366-1.829-0.833c-0.024-0.462,0.767-0.859,1.746-0.87c20.034-1.87,40.316-3.142,60.687-3.987
				c6.686-2.012,13.392-4.052,20.222-6.048c-0.859-0.035-1.73-0.059-2.6-0.062c-22.145,0.003-40.936,5.729-62.376,6.908
				c-0.537,0.06-0.983-0.142-1.054-0.375c-0.058-0.232,0.308-0.469,0.852-0.473c10.464-0.783,20.013-2.746,30.394-4.117
				c8.6-1.149,16.779-2.2,24.771-3.718c-16.34,0.545-32.009,3.03-48.195,4.146c-0.707,0.105-1.42-0.005-1.87-0.253
				c-0.038,0.13-0.182,0.253-0.398,0.329c-2.022,0.641-4.229,1.104-6.484,1.489c-0.431,0.105-0.976,0.007-1.204-0.249
				C109.142,49.736,109.404,49.503,109.885,49.365z M394.187,76.917c0.158,0.107,0.285,0.194,0.406,0.279
				c-0.438-0.149-0.908-0.306-1.43-0.478c0,0,0,0-1.994-1.897C391.169,74.822,392.681,75.852,394.187,76.917z M419.213,69.945
				c-0.004,0-0.004,0-0.014,0c0.666,0.618,1.148,1.065,1.148,1.065C419.881,70.574,419.517,70.227,419.213,69.945z M259.409,86.468
				c8.594,0.038,17.1,0.481,25.588,1.673c-2.075,0.103-4.141,0.206-6.214,0.312C272.346,87.888,265.893,87.224,259.409,86.468z
				 M410.97,84.093c-2.262-0.989-4.024-2.207-5.688-3.464c-1.488,0.226-3.042,0.31-4.616,0.256c-4.23-0.137-8.351-0.389-12.407-0.74
				c0.526,0.668-0.446,0.588-0.942,0.668c-0.513,0.057-1.02,0.104-1.525,0.16c4.327,0.478,8.668,1,13.083,1.569
				C402.856,83.047,407.182,83.34,410.97,84.093z M441.193,81.534c0.122,0.084,0.233,0.16,0.371,0.244c0,0,0,0-0.81,0.997
				C440.754,82.775,440.947,82.252,441.193,81.534z M442.468,79.843c-0.199-0.046-0.399-0.096-0.618-0.142
				C442.073,79.331,442.272,79.464,442.468,79.843z M436.782,78.578c0.336,0.268,0.541,0.432,0.806,0.539
				C436.787,78.578,436.782,78.578,436.782,78.578z M432.746,49.174l-2.217,4.999l2.417-4.8L432.746,49.174z"/>
		</g>
	</g>
</g>
</svg>
